<?xml version="1.0" encoding="utf-8"?>

<!DOCTYPE svg PUBLIC "-//W3C//DTD SVG 1.1//EN" "http://www.w3.org/Graphics/SVG/1.1/DTD/svg11.dtd">
<!-- Uploaded to: SVG Repo, www.svgrepo.com, Generator: SVG Repo Mixer Tools -->
<svg height="800px" width="800px" version="1.1" id="_x32_" xmlns="http://www.w3.org/2000/svg" xmlns:xlink="http://www.w3.org/1999/xlink" 
	 viewBox="0 0 512 512"  xml:space="preserve">
<style type="text/css">
	.st0{fill:#000000;}
</style>
<g>
	<path class="st0" d="M199.015,437.974c19.98,0,36.456-15.671,37.442-35.633l10.656-214.728
		c-15.273,8.637-32.881,13.598-51.639,13.598c-18.739,0-36.356-4.96-51.61-13.598l10.646,214.728
		c0.996,19.962,17.454,35.633,37.452,35.633H199.015z"/>
	<path class="st0" d="M362.973,355.664c-0.036,0-0.072-0.009-0.108-0.009c-0.046,0-0.091,0-0.127,0c-0.054,0-0.109,0-0.154,0
		c-0.018,0-0.018,0-0.018,0c-0.054,0-0.109,0-0.163,0c-0.262,0-0.498,0.018-0.67,0.036c-18.495,0.217-35.288,7.795-47.438,19.952
		c-12.339,12.321-19.989,29.441-19.98,48.262l-0.009,27.349c-0.009,12.348-4.979,23.447-13.063,31.54
		c-8.093,8.085-19.183,13.064-31.514,13.073c-0.009,0-0.027-0.009-0.036-0.009c-12.34,0-23.438-4.979-31.532-13.064
		c-8.076-8.093-13.054-19.192-13.064-31.522h-16.123c0,32.084,24.895,58.284,56.436,60.511l0.154,0.217h4.138h0.008
		c16.74,0,31.976-6.816,42.948-17.798c10.972-10.963,17.78-26.2,17.78-42.947v-27.349c0.01-14.412,5.821-27.404,15.273-36.855
		c8.356-8.356,19.473-13.851,31.894-15.019l0.851,1.756l5.387-1.964c12.393,0.308,23.664,4.87,32.482,12.357l10.456-12.276
		C394.984,361.848,379.648,355.746,362.973,355.664z"/>
	<path class="st0" d="M132.022,154.462C131.805,154.253,132.81,155.249,132.022,154.462L132.022,154.462z"/>
	<path class="st0" d="M252.78,160.03c35.66-28.526,43.029-81.921,17.997-119.654C247.095,6.545,204.546-8.873,165.038,5.196
		C123.404,20.161,98.21,64.71,106.945,108.074c3.504,17.617,12.412,33.731,25.077,46.388
		C164.45,186.518,217.555,189.098,252.78,160.03z"/>
</g>
</svg>